<?xml version="1.0" encoding="UTF-8" standalone="no"?>
<svg
   pointer-events="none"
   class="leaflet-zoom-animated"
   width="491.99997"
   height="407.99979"
   viewBox="4668 3981 491.99997 407.99979"
   version="1.1"
   id="svg6"
   sodipodi:docname="shape-berlin.svg"
   inkscape:version="1.1 (c4e8f9ed74, 2021-05-24)"
   xmlns:inkscape="http://www.inkscape.org/namespaces/inkscape"
   xmlns:sodipodi="http://sodipodi.sourceforge.net/DTD/sodipodi-0.dtd"
   xmlns="http://www.w3.org/2000/svg"
   xmlns:svg="http://www.w3.org/2000/svg">
  <defs
     id="defs10" />
  <sodipodi:namedview
     id="namedview8"
     pagecolor="#ffffff"
     bordercolor="#666666"
     borderopacity="1.0"
     inkscape:pageshadow="2"
     inkscape:pageopacity="0.0"
     inkscape:pagecheckerboard="0"
     showgrid="false"
     inkscape:zoom="0.79225569"
     inkscape:cx="95.297517"
     inkscape:cy="203.21722"
     inkscape:window-width="1600"
     inkscape:window-height="827"
     inkscape:window-x="0"
     inkscape:window-y="73"
     inkscape:window-maximized="1"
     inkscape:current-layer="g4"
     fit-margin-top="0"
     fit-margin-left="0"
     fit-margin-right="0"
     fit-margin-bottom="0" />
  <g
     id="g4"
     transform="translate(-568.00002,-55.000138)">
    <path
       class="leaflet-interactive"
       stroke="#2a8a15"
       stroke-opacity="0.65"
       stroke-width="4"
       stroke-linecap="round"
       stroke-linejoin="round"
       fill="#2a8a15"
       fill-opacity="0.2"
       fill-rule="evenodd"
       d="m 5523,4039 -3,4 v 6 l 9,-5 -2,14 4,5 14,9 1,2 4,-2 4,2 -3,17 -9,7 -1,7 -6,16 v 2 l 2,-1 6,16 11,-1 18,6 9,7 7,11 4,-1 2,1 v 2 l 3,1 1,10 3,7 v 10 l 35,8 -3,4 h -3 l -1,9 h 18 l 5,2 1,3 -11,8 -8,9 -6,20 5,1 -12,16 -1,6 2,1 -3,6 2,1 2,-2 3,1 v 2 h 3 v -6 l 13,-7 12,6 h 5 l 9,6 2,4 11,2 1,11 4,1 v -12 l -4,-5 h 2 l 9,8 h 2 l 9,13 18,4 v 5 l 4,1 v 8 l -5,-1 2,-6 h -3 l -5,4 -1,5 h -3 l -1,2 h 2 v 3 h 2 l -1,4 h -2 l -4,5 -3,7 3,7 4,3 -3,5 v 3 l -2,2 h -5 l -1,2 -5,-2 -5,5 -3,1 -5,6 v -3 l -1,3 -6,6 h -2 l 6,5 3,-1 -1,5 2,-1 v 4 l -7,9 -7,-3 -7,4 -3,4 -3,9 -5,6 v 4 l -4,5 1,4 -3,2 -8,-9 1,-17 7,-9 -1,-4 h -2 v -8 l -7,1 -4,-6 -16,8 v -6 l -4,-6 -5,-3 -1,-8 -20,7 -22,-1 v -8 l 2,-6 -7,3 -5,-4 h -5 l -18,4 -7,3 -4,-16 -5,-12 -4,-2 -31,13 -1,3 7,25 -5,12 -24,-2 -1,-12 h -12 l 1,-7 -14,-9 -7,-7 v -5 l -23,15 -11,-20 -16,13 h -6 l -5,-2 h -4 l -3,2 v -8 l -3,-11 -17,1 -12,5 h -5 l -29,15 -1,8 10,-1 v 2 l -4,2 h -5 l -11,-3 -8,9 1,2 h -2 l -3,-5 h 3 l 5,-5 -2,-2 1,-1 -3,-1 -3,3 h -2 l -4,-3 -9,-10 v -2 l 3,-1 v -4 l -5,1 -2,3 -1,-3 h -3 v 4 l -5,-4 -1,-9 5,-2 3,-4 3,1 6,-6 v -3 l 8,-9 -3,-6 -4,-3 -3,-5 2,-3 -1,-16 4,-6 1,-8 6,-2 20,-26 10,-10 -18,-11 -18,3 1,-17 2,-2 2,-7 v -6 l 4,-15 5,4 h 6 l 1,-11 5,-13 v -6 l -3,-6 -13,4 -2,-9 h 6 l 9,-5 3,-5 8,-4 14,6 6,5 6,1 5,3 v -3 l 8,2 1,-6 -12,-13 -1,-4 4,-4 10,-21 h 32 v -12 l -2,-4 4,1 11,-2 v -23 l 18,2 2,2 -7,5 7,12 -2,3 v 4 l -3,1 4,8 -5,1 1,2 7,-1 12,3 5,3 h 6 v -2 l 10,2 13,-7 v -4 l 5,-5 5,-2 v -4 l 5,-8 h 2 l 6,7 4,-2 v 2 l 8,8 3,-3 h 4 v -7 l 5,-2 v -4 l 10,-1 4,2 8,-5 3,-3 -3,-3 h -6 l -8,-7 6,-7 5,2 6,-9 2,1 1,-2 z"
       id="path2"
       style="fill:#fa860c;fill-opacity:0.6309827;stroke:#ff7900;stroke-opacity:1" />
  </g>
</svg>
